<svg width="732" height="732" viewBox="0 0 732 732" fill="none" xmlns="http://www.w3.org/2000/svg">
<path fill-rule="evenodd" clip-rule="evenodd" d="M365.854 0C567.817 0 731.845 163.968 731.845 365.922C731.845 567.877 567.817 731.845 365.854 731.845C163.892 731.845 0 567.877 0 365.922C0 163.968 163.892 0 365.854 0ZM365.854 37.7061C184.729 37.7061 37.6666 184.777 37.6666 365.922C37.6666 547.067 184.729 694.139 365.854 694.139C546.98 694.139 694.042 547.067 694.042 365.922C694.042 184.777 546.98 37.7061 365.854 37.7061ZM205.608 510.634C181.92 503.698 159.617 490.922 140.903 472.209C81.3571 412.666 81.3722 316.076 140.878 256.572C159.698 237.754 182.258 224.876 206.168 217.979C206.122 218.418 206.044 218.824 205.965 219.231C205.887 219.636 205.809 220.042 205.763 220.48C204.834 227.167 204.219 233.802 204.062 240.503C186.264 246.784 169.695 257.069 155.534 271.228C104.129 322.632 104.141 406.109 155.573 457.54C169.576 471.542 186.039 481.775 203.51 488.122C207.554 489.574 211.72 490.913 215.882 491.987C220.253 493.112 224.624 493.976 228.995 494.578C231.678 495.036 234.267 495.322 236.884 495.584C240.967 495.95 245.009 496.092 249.157 496.131C279.427 495.961 309.779 485.508 334.16 464.53L235.093 365.467L249.764 350.797L363.881 464.91L356.552 472.238C354.38 474.41 352.104 476.427 349.839 478.43C322.161 502.966 287.673 515.723 252.94 516.691C248.818 516.887 244.642 516.873 240.428 516.638C235.534 516.297 230.761 515.843 225.97 515.136C223.471 514.756 221.008 514.334 218.456 513.745C214.228 512.999 209.861 511.877 205.608 510.634ZM249.576 232.674C249.812 230.869 250.065 229.054 250.339 227.209C251.046 222.053 252.156 217.012 253.518 211.987C283.932 212.982 314.173 223.043 339.667 242.045L324.826 256.884C302.317 240.919 276.025 232.923 249.576 232.674ZM260.692 137.223C241.978 155.937 229.201 178.239 222.265 201.926C221.022 206.179 219.9 210.547 219.154 214.773C218.565 217.325 218.143 219.789 217.764 222.288C217.057 227.078 216.602 231.851 216.262 236.746C216.026 240.959 216.012 245.135 216.208 249.257C217.177 283.989 229.933 318.475 254.472 346.152C256.474 348.416 258.49 350.692 260.662 352.865L267.992 360.193L382.109 246.08L367.438 231.41L268.371 330.474C247.393 306.094 236.939 275.743 236.769 245.474C236.808 241.326 236.95 237.284 237.316 233.201C237.578 230.584 237.864 227.995 238.322 225.312C238.924 220.941 239.788 216.57 240.913 212.199C241.987 208.038 243.326 203.873 244.778 199.828C251.125 182.358 261.359 165.896 275.362 151.893C326.794 100.463 410.275 100.451 461.68 151.855C475.84 166.015 486.125 182.583 492.407 200.381C499.107 200.537 505.742 201.152 512.43 202.081C512.868 202.127 513.274 202.205 513.68 202.284C514.086 202.362 514.492 202.441 514.931 202.486C508.033 178.578 495.155 156.018 476.336 137.199C416.83 77.695 320.238 77.6798 260.692 137.223ZM505.701 246.656C503.856 246.381 502.04 246.128 500.235 245.893C499.986 272.341 491.99 298.632 476.024 321.14L490.865 335.98C509.867 310.488 519.929 280.247 520.923 249.834C515.898 248.473 510.858 247.363 505.701 246.656ZM530.974 218.373C554.661 225.309 576.964 238.084 595.678 256.798C655.224 316.341 655.209 412.93 595.702 472.434C576.884 491.253 554.323 504.131 530.413 511.027C530.459 510.59 530.537 510.185 530.615 509.78C530.693 509.373 530.772 508.966 530.818 508.527C531.747 501.84 532.362 495.205 532.519 488.504C550.317 482.223 566.886 471.938 581.046 457.778C632.452 406.375 632.44 322.898 581.008 271.467C567.005 257.465 550.542 247.232 533.071 240.884C529.027 239.432 524.862 238.093 520.699 237.02C516.329 235.895 511.958 235.031 507.587 234.429C504.904 233.971 502.314 233.685 499.697 233.423C495.614 233.057 491.572 232.915 487.424 232.876C457.153 233.045 426.802 243.498 402.421 264.477L501.488 363.54L486.817 378.209L372.7 264.097L380.029 256.769C382.202 254.596 384.478 252.58 386.742 250.577C414.42 226.04 448.908 213.284 483.64 212.316C487.763 212.12 491.939 212.134 496.152 212.369C501.047 212.709 505.821 213.164 510.611 213.871C513.11 214.25 515.574 214.673 518.125 215.262C522.352 216.008 526.72 217.129 530.974 218.373ZM487.005 496.332C486.769 498.138 486.516 499.953 486.242 501.798C485.535 506.954 484.425 511.995 483.063 517.019C452.649 516.025 422.407 505.964 396.914 486.962L411.755 472.122C434.265 488.087 460.557 496.083 487.005 496.332ZM475.89 591.782C494.604 573.069 507.38 550.767 514.316 527.08C515.559 522.827 516.682 518.459 517.428 514.232C518.017 511.68 518.438 509.217 518.817 506.718C519.524 501.928 519.979 497.155 520.319 492.26C520.556 488.046 520.57 483.871 520.373 479.749C519.405 445.017 506.648 410.531 482.11 382.853C480.108 380.589 478.091 378.313 475.919 376.141L468.59 368.812L354.473 482.925L369.144 497.596L468.21 398.532C489.189 422.912 499.642 453.262 499.813 483.532C499.773 487.68 499.631 491.722 499.265 495.804C499.003 498.421 498.717 501.011 498.259 503.693C497.657 508.064 496.794 512.435 495.668 516.807C494.595 520.967 493.256 525.133 491.803 529.177C485.456 546.647 475.222 563.11 461.219 577.112C409.788 628.543 326.307 628.554 274.902 577.15C260.742 562.991 250.457 546.423 244.174 528.625C237.474 528.469 230.839 527.853 224.152 526.924C223.713 526.878 223.307 526.8 222.901 526.722C222.495 526.643 222.089 526.565 221.651 526.519C228.548 550.428 241.426 572.988 260.245 591.806C319.751 651.31 416.344 651.325 475.89 591.782ZM245.717 393.026C226.714 418.518 216.653 448.758 215.658 479.171C220.684 480.533 225.724 481.643 230.881 482.35C232.725 482.624 234.541 482.877 236.346 483.113C236.595 456.665 244.591 430.374 260.558 407.866L245.717 393.026Z" fill="#FEF8E6"/>
</svg>
