<svg width="20" height="21" viewBox="0 0 20 21" fill="none" xmlns="http://www.w3.org/2000/svg">
<g clip-path="url(#clip0_984_3866)">
<path d="M2.92984 17.7769C1.97473 16.8544 1.21291 15.751 0.688821 14.5309C0.164731 13.3109 -0.111131 11.9987 -0.122669 10.6709C-0.134207 9.34309 0.11881 8.02629 0.621618 6.79733C1.12443 5.56836 1.86696 4.45184 2.80589 3.51292C3.74481 2.57399 4.86133 1.83146 6.09029 1.32865C7.31926 0.825841 8.63605 0.572824 9.96385 0.584362C11.2916 0.5959 12.6038 0.871762 13.8239 1.39585C15.0439 1.91994 16.1474 2.68176 17.0698 3.63687C18.8914 5.52289 19.8994 8.04891 19.8766 10.6709C19.8538 13.2928 18.8021 15.801 16.948 17.6551C15.0939 19.5091 12.5858 20.5608 9.96385 20.5836C7.34188 20.6064 4.81586 19.5984 2.92984 17.7769ZM4.33984 16.3669C5.84096 17.868 7.87692 18.7113 9.99984 18.7113C12.1227 18.7113 14.1587 17.868 15.6598 16.3669C17.161 14.8657 18.0043 12.8298 18.0043 10.7069C18.0043 8.58395 17.161 6.54799 15.6598 5.04687C14.1587 3.54574 12.1227 2.70242 9.99984 2.70242C7.87692 2.70242 5.84096 3.54574 4.33984 5.04687C2.83871 6.54799 1.99539 8.58395 1.99539 10.7069C1.99539 12.8298 2.83871 14.8657 4.33984 16.3669ZM14.2398 7.87687L11.4098 10.7069L14.2398 13.5369L12.8298 14.9469L9.99984 12.1169L7.16984 14.9469L5.75984 13.5369L8.58984 10.7069L5.75984 7.87687L7.16984 6.46687L9.99984 9.29687L12.8298 6.46687L14.2398 7.87687Z" fill="#009BA3"/>
</g>
<defs>
<clipPath id="clip0_984_3866">
<rect width="20" height="20" fill="white" transform="translate(0 0.707031)"/>
</clipPath>
</defs>
</svg>
