<svg width="1440" height="556" viewBox="0 0 1440 556" fill="none" xmlns="http://www.w3.org/2000/svg">
<path opacity="0.01" fill-rule="evenodd" clip-rule="evenodd" d="M719.866 -475.155C1117.25 -475.155 1440 -152.527 1440 244.845C1440 642.216 1117.25 964.845 719.866 964.845C322.48 964.845 0 642.216 0 244.845C0 -152.527 322.48 -475.155 719.866 -475.155ZM719.866 -400.964C363.479 -400.964 74.1139 -111.581 74.1139 244.845C74.1139 601.271 363.479 890.654 719.866 890.654C1076.25 890.654 1365.62 601.271 1365.62 244.845C1365.62 -111.581 1076.25 -400.964 719.866 -400.964ZM404.559 529.584C357.95 515.937 314.066 490.799 277.243 453.977C160.08 336.819 160.11 146.766 277.196 29.6845C314.225 -7.34308 358.616 -32.6822 405.662 -46.2526C405.572 -45.3889 405.417 -44.5896 405.263 -43.7904C405.109 -42.9921 404.955 -42.1939 404.865 -41.332C403.037 -28.174 401.826 -15.1191 401.519 -1.93488C366.497 10.4246 333.896 30.6615 306.034 58.5222C204.887 159.666 204.911 323.917 306.109 425.114C333.662 452.665 366.055 472.8 400.432 485.289C408.39 488.146 416.586 490.781 424.775 492.893C433.375 495.107 441.976 496.808 450.577 497.991C455.856 498.892 460.95 499.455 466.099 499.971C474.134 500.691 482.087 500.97 490.249 501.047C549.809 500.712 609.53 480.144 657.503 438.869L462.576 243.948L491.442 215.083L715.982 439.615L701.562 454.035C697.288 458.309 692.809 462.277 688.354 466.217C633.892 514.497 566.034 539.597 497.693 541.502C489.581 541.888 481.365 541.86 473.074 541.397C463.444 540.728 454.051 539.832 444.625 538.442C439.708 537.695 434.861 536.864 429.839 535.706C421.521 534.238 412.927 532.03 404.559 529.584ZM491.073 -17.338C491.537 -20.8906 492.034 -24.4611 492.574 -28.0922C493.965 -38.2376 496.15 -48.1556 498.828 -58.0425C558.672 -56.0854 618.176 -36.2887 668.338 1.09894L639.137 30.2982C594.847 -1.11508 543.115 -16.8487 491.073 -17.338ZM512.945 -205.151C476.122 -168.329 450.982 -124.447 437.335 -77.84C434.889 -69.4716 432.681 -60.8774 431.214 -52.5614C430.055 -47.5394 429.224 -42.6925 428.478 -37.7752C427.087 -28.3498 426.192 -18.9586 425.522 -9.32703C425.059 -1.0372 425.031 7.17899 425.418 15.2904C427.322 83.6299 452.422 151.485 500.705 205.945C504.645 210.399 508.612 214.878 512.886 219.152L527.307 233.572L751.848 9.03952L722.98 -19.8259L528.054 175.094C486.776 127.124 466.207 67.4053 465.873 7.84662C465.95 -0.315582 466.23 -8.26831 466.95 -16.3012C467.466 -21.4509 468.028 -26.5465 468.928 -31.8237C470.113 -40.4245 471.813 -49.0252 474.027 -57.6259C476.14 -65.8143 478.774 -74.0092 481.632 -81.9669C494.12 -116.342 514.257 -148.734 541.81 -176.287C643.008 -277.481 807.268 -277.504 908.415 -176.36C936.276 -148.5 956.514 -115.9 968.874 -80.8803C982.058 -80.5726 995.113 -79.3618 1008.27 -77.5339C1009.13 -77.444 1009.93 -77.2899 1010.73 -77.1357C1011.53 -76.9814 1012.33 -76.8271 1013.19 -76.7371C999.621 -123.781 974.282 -168.17 937.252 -205.198C820.166 -322.28 630.109 -322.31 512.945 -205.151ZM995.032 10.1719C991.401 9.63187 987.829 9.13443 984.277 8.67133C983.787 60.7109 968.054 112.441 936.639 156.729L965.84 185.929C1003.23 135.769 1023.03 76.2662 1024.98 16.4261C1015.1 13.7473 1005.18 11.5628 995.032 10.1719ZM1044.76 -45.4787C1091.37 -31.8315 1135.25 -6.6936 1172.08 30.1279C1289.24 147.287 1289.21 337.339 1172.12 454.421C1135.1 491.448 1090.7 516.787 1043.66 530.356C1043.75 529.496 1043.9 528.699 1044.05 527.903C1044.21 527.102 1044.36 526.302 1044.45 525.437C1046.28 512.279 1047.49 499.224 1047.8 486.04C1082.82 473.681 1115.42 453.444 1143.29 425.583C1244.43 324.439 1244.41 160.188 1143.21 58.9917C1115.66 31.4402 1083.26 11.3047 1048.89 -1.18399C1040.93 -4.04272 1032.73 -6.6756 1024.54 -8.78815C1015.95 -11.0021 1007.34 -12.7023 998.744 -13.8854C993.465 -14.7871 988.369 -15.35 983.219 -15.8654C975.185 -16.5854 967.232 -16.8653 959.07 -16.9422C899.51 -16.6083 839.789 3.95914 791.817 45.2364L986.744 240.157L957.877 269.021L733.337 44.4902L747.758 30.0706C752.032 25.7948 756.511 21.8282 760.965 17.8878C815.427 -30.3914 883.285 -55.4916 951.626 -57.3964C959.738 -57.7825 967.954 -57.7547 976.245 -57.2916C985.877 -56.6223 995.27 -55.7273 1004.69 -54.3363C1009.61 -53.5902 1014.46 -52.7589 1019.48 -51.6003C1027.8 -50.1325 1036.39 -47.9251 1044.76 -45.4787ZM958.247 501.442C957.782 504.996 957.285 508.566 956.745 512.197C955.354 522.343 953.169 532.261 950.49 542.148C890.647 540.191 831.142 520.394 780.981 483.006L810.182 453.805C854.474 485.22 906.206 500.952 958.247 501.442ZM936.375 689.255C973.198 652.433 998.335 608.551 1011.98 561.944C1014.43 553.575 1016.64 544.981 1018.11 536.664C1019.26 531.643 1020.09 526.796 1020.84 521.879C1022.23 512.454 1023.13 503.062 1023.8 493.431C1024.26 485.139 1024.29 476.925 1023.9 468.813C1022 400.474 996.895 332.619 948.613 278.159C944.674 273.705 940.706 269.226 936.432 264.952L922.012 250.532L697.472 475.064L726.337 503.93L921.264 309.009C962.543 356.979 983.111 416.698 983.446 476.257C983.368 484.419 983.089 492.372 982.368 500.405C981.852 505.555 981.291 510.65 980.389 515.928C979.205 524.528 977.506 533.129 975.291 541.73C973.18 549.917 970.545 558.113 967.686 566.071C955.198 600.446 935.06 632.838 907.507 660.389C806.31 761.585 642.052 761.608 540.905 660.464C513.042 632.604 492.805 600.004 480.444 564.984C467.26 564.676 454.205 563.466 441.047 561.638C440.183 561.548 439.384 561.393 438.585 561.239C437.786 561.085 436.988 560.931 436.127 560.841C449.697 607.885 475.036 652.274 512.065 689.302C629.152 806.384 819.211 806.413 936.375 689.255ZM483.48 298.175C446.089 348.334 426.292 407.836 424.335 467.678C434.224 470.356 444.142 472.541 454.287 473.932C457.916 474.472 461.489 474.969 465.041 475.432C465.53 423.393 481.264 371.662 512.681 327.374L483.48 298.175Z" fill="white"/>
</svg>
