<svg width="178" height="48" viewBox="0 0 178 48" fill="none" xmlns="http://www.w3.org/2000/svg">
<g clip-path="url(#clip0_805_347)">
<path fill-rule="evenodd" clip-rule="evenodd" d="M24.6322 0C37.8785 0 48.6367 10.7543 48.6367 24C48.6367 37.2457 37.8785 48 24.6322 48C11.386 48 0.636719 37.2457 0.636719 24C0.636719 10.7543 11.386 0 24.6322 0ZM24.6322 2.47306C12.7527 2.47306 3.10718 12.1191 3.10718 24C3.10718 35.8809 12.7527 45.527 24.6322 45.527C36.5119 45.527 46.1574 35.8809 46.1574 24C46.1574 12.1191 36.5119 2.47306 24.6322 2.47306Z" fill="white"/>
<path fill-rule="evenodd" clip-rule="evenodd" d="M14.122 33.4914C12.5684 33.0364 11.1056 32.1985 9.87813 30.9711C5.97268 27.0658 5.97367 20.7308 9.87655 16.828C11.1109 15.5938 12.5906 14.7492 14.1587 14.2968C14.1527 14.3544 14.1382 14.4033 14.1322 14.4608C14.0713 14.8994 14.0309 15.3346 14.0206 15.7741C12.8533 16.186 11.7666 16.8606 10.8378 17.7893C7.46624 21.1608 7.46706 26.6358 10.8403 30.009C11.7587 30.9274 12.8385 31.5986 13.9844 32.0149C14.2497 32.1101 14.5229 32.1979 14.7958 32.2683C15.0825 32.3421 15.3692 32.3988 15.6559 32.4382C15.8319 32.4683 16.0017 32.4871 16.1733 32.5042C16.4411 32.5282 16.7062 32.5376 16.9783 32.5401C18.9637 32.529 20.9543 31.8434 22.5535 30.4675L16.0559 23.9702L17.0181 23.008L24.5028 30.4924L24.0221 30.973C23.8796 31.1155 23.7303 31.2478 23.5818 31.3791C21.7664 32.9884 19.5045 33.8251 17.2264 33.8886C16.9561 33.9015 16.6822 33.9006 16.4058 33.8851C16.0848 33.8628 15.7717 33.833 15.4575 33.7866C15.2936 33.7617 15.1321 33.734 14.9647 33.6954C14.6874 33.6465 14.4009 33.5729 14.122 33.4914ZM17.0058 15.2606C17.0212 15.1422 17.0378 15.0232 17.0558 14.9022C17.1022 14.564 17.175 14.2334 17.2643 13.9038C19.2591 13.969 21.2426 14.6289 22.9146 15.8752L21.9412 16.8485C20.4649 15.8014 18.7405 15.2769 17.0058 15.2606Z" fill="white"/>
<path fill-rule="evenodd" clip-rule="evenodd" d="M15.2148 13.2438C15.6697 11.6902 16.5077 10.2275 17.7351 9.0001C21.6406 5.09478 27.9758 5.09578 31.8787 8.99852C33.113 10.2328 33.9576 11.7124 34.41 13.2806C34.3525 13.2746 34.3035 13.26 34.246 13.254C33.8074 13.1931 33.3722 13.1527 32.9327 13.1424C32.5207 11.9751 31.8461 10.8885 30.9174 9.95978C27.5459 6.58832 22.0705 6.58909 18.6973 9.96223C17.7789 10.8807 17.1076 11.9604 16.6913 13.1062C16.5961 13.3715 16.5083 13.6446 16.4379 13.9176C16.3641 14.2043 16.3074 14.491 16.2679 14.7777C16.2379 14.9536 16.2191 15.1234 16.2019 15.2951C16.1779 15.5628 16.1686 15.8279 16.1661 16.1C16.1772 18.0853 16.8628 20.0759 18.2387 21.6749L24.7363 15.1776L25.6985 16.1398L18.2139 23.6242L17.7331 23.1435C17.5907 23.001 17.4585 22.8518 17.3271 22.7033C15.7177 20.888 14.881 18.6261 14.8175 16.3481C14.8047 16.0778 14.8056 15.8039 14.821 15.5276C14.8433 15.2065 14.8732 14.8935 14.9195 14.5793C14.9444 14.4154 14.9721 14.2538 15.0107 14.0864C15.0597 13.8092 15.1332 13.5227 15.2148 13.2438ZM33.4462 16.1275C33.5646 16.1429 33.6837 16.1595 33.8047 16.1775C34.1429 16.2239 34.4735 16.2967 34.803 16.386C34.7379 18.3807 34.0779 20.3641 32.8316 22.0361L31.8582 21.0628C32.9054 19.5865 33.4299 17.8622 33.4462 16.1275Z" fill="white"/>
<path fill-rule="evenodd" clip-rule="evenodd" d="M35.4619 14.3227C37.0154 14.7776 38.4782 15.6155 39.7057 16.8429C43.6111 20.7482 43.6101 27.0833 39.7073 30.986C38.473 32.2203 36.9933 33.0649 35.4251 33.5172C35.4311 33.4597 35.4456 33.4107 35.4516 33.3532C35.5125 32.9146 35.5529 32.4795 35.5632 32.04C36.7305 31.628 37.8173 30.9534 38.746 30.0247C42.1176 26.6533 42.1168 21.1782 38.7435 17.805C37.8251 16.8867 36.7453 16.2155 35.5994 15.7992C35.3342 15.7039 35.061 15.6161 34.788 15.5457C34.5013 15.4719 34.2146 15.4152 33.9279 15.3758C33.752 15.3457 33.5821 15.327 33.4105 15.3098C33.1427 15.2858 32.8776 15.2765 32.6055 15.2739C30.6201 15.285 28.6295 15.9706 27.0304 17.3465L33.528 23.8439L32.5657 24.806L25.0811 17.3217L25.5618 16.841C25.7042 16.6985 25.8535 16.5663 26.002 16.4349C27.8174 14.8256 30.0793 13.9889 32.3574 13.9254C32.6277 13.9126 32.9016 13.9135 33.178 13.9289C33.4991 13.9512 33.8121 13.9811 34.1263 14.0274C34.2902 14.0523 34.4518 14.08 34.6191 14.1186C34.8964 14.1676 35.1829 14.2411 35.4619 14.3227ZM32.5781 32.5534C32.5626 32.6718 32.546 32.7909 32.528 32.9119C32.4816 33.2501 32.4088 33.5807 32.3195 33.9102C30.3247 33.845 28.3412 33.1851 26.6692 31.9389L27.6426 30.9655C29.1189 32.0127 30.8433 32.5371 32.5781 32.5534Z" fill="white"/>
<path fill-rule="evenodd" clip-rule="evenodd" d="M34.3695 34.5698C33.9146 36.1234 33.0767 37.5861 31.8492 38.8135C27.9438 42.7188 21.6085 42.7178 17.7056 38.8151C16.4713 37.5809 15.6267 36.1012 15.1743 34.5331C15.2318 34.5391 15.2808 34.5536 15.3383 34.5596C15.7769 34.6206 16.2121 34.6609 16.6516 34.6712C17.0636 35.8385 17.7382 36.9252 18.6669 37.8539C22.0385 41.2253 27.5137 41.2245 30.887 37.8513C31.8054 36.933 32.4767 35.8532 32.893 34.7074C32.9883 34.4421 33.0761 34.1689 33.1464 33.896C33.2203 33.6093 33.2769 33.3227 33.3164 33.036C33.3465 32.8601 33.3652 32.6902 33.3823 32.5185C33.4064 32.2508 33.4157 31.9857 33.4183 31.7136C33.4071 29.7283 32.7215 27.7377 31.3456 26.1387L24.848 32.636L23.8858 31.6739L31.3705 24.1895L31.8511 24.6701C31.9936 24.8126 32.1259 24.9619 32.2572 25.1103C33.8666 26.9257 34.7033 29.1875 34.7668 31.4655C34.7797 31.7359 34.7788 32.0097 34.7633 32.2861C34.741 32.6071 34.7111 32.9202 34.6648 33.2343C34.6399 33.3983 34.6122 33.5598 34.5736 33.7272C34.5247 34.0044 34.4511 34.2909 34.3695 34.5698ZM14.7812 31.4276C14.8465 29.4329 15.5064 27.4495 16.7527 25.7775L17.7261 26.7509C16.6789 28.2271 16.1544 29.9515 16.1381 31.6861C16.0197 31.6707 15.9006 31.6541 15.7797 31.6361C15.4415 31.5897 15.1109 31.5169 14.7812 31.4276Z" fill="white"/>
<path d="M54.7686 15.7879C54.7686 21.5758 59.3511 26.1819 65.0865 26.1819C70.7009 26.1819 75.3138 21.7879 75.496 16.1819V15H66.088V18.6061H70.3671C69.3656 20.4849 67.3627 21.7576 65.0865 21.7576C61.8089 21.7576 59.2294 19.091 59.2294 15.8182C59.2294 12.4849 61.8089 9.84855 65.0865 9.84855C66.9073 9.84855 68.5464 10.6667 69.6084 11.9697L73.2504 9.39397C71.338 7.00003 68.3947 5.45459 65.0865 5.45459C59.3511 5.45459 54.7686 10.0606 54.7686 15.7879Z" fill="white"/>
<path d="M76.4854 25.7375H81.1195L82.2704 22.2008H90.2668L91.3872 25.7375H96.143L89.1459 5.78711H83.4819L76.4854 25.7375ZM83.4819 18.3921L85.3904 12.5279L86.2381 9.47487H86.2992L87.1774 12.5582L89.0554 18.3921H83.4819Z" fill="white"/>
<path d="M107.838 5.78711H98.6299V25.7375H103.294V20.236H107.565L110.715 25.7375H115.834L111.987 19.1781C114.259 17.848 115.622 15.46 115.622 12.8302C115.622 8.80985 112.532 5.78711 107.838 5.78711ZM103.294 16.4878V9.41444H107.111C109.443 9.41444 110.806 11.0468 110.806 12.9209C110.806 14.795 109.443 16.4878 107.111 16.4878H103.294Z" fill="white"/>
<path d="M136.702 5.78711H132.492V16.3669L132.613 19.843H132.583L130.947 16.8203L124.405 5.78711H119.074V25.7375H123.284V15.1275L123.163 11.5909H123.223L124.829 14.6741L131.401 25.7375H136.702V5.78711Z" fill="white"/>
<path d="M141.182 25.7375H156.902V22.0195H145.937V17.6364H155.145V14.0695H145.937V9.50515H156.508V5.78711H141.182V25.7375Z" fill="white"/>
<path d="M176.951 5.78711H158.989V9.92831H165.623V25.7375H170.347V9.92831H176.951V5.78711Z" fill="white"/>
<path d="M55.6416 42.2987H57.6827V38.1169H63.0472V36.3153H57.6827V33.1748H63.8234V31.3896H55.6416V42.2987Z" fill="white"/>
<path d="M64.375 42.3623H66.391L67.1737 40.1346H72.0217L72.8045 42.3623H74.8537L70.8223 31.3896H68.4234L64.375 42.3623ZM67.7737 38.4221L69.1063 34.6482L69.5726 33.0688H69.6059L70.1055 34.6815L71.4217 38.4221H67.7737Z" fill="white"/>
<path d="M87.8629 31.3896H84.9976L82.8987 37.5909L82.1493 40.1346H82.116L81.366 37.5743L79.2671 31.3896H76.3184V42.3623H78.1511V36.2941L78.0175 33.3514H78.0513L81.2662 42.3623H82.9156L86.1305 33.3514H86.1638L86.0471 36.2941V42.3623H87.8629V31.3896Z" fill="white"/>
<path d="M92.5756 31.3896H90.5264V42.3623H92.5756V31.3896Z" fill="white"/>
<path d="M97.3031 31.3896H95.2871V42.3623H103.25V40.6333H97.3031V31.3896Z" fill="white"/>
<path d="M107.069 31.3896H105.021V42.3623H107.069V31.3896Z" fill="white"/>
<path d="M109.879 42.3623H118.209V40.6832H111.895V37.7571H117.209V36.1113H111.895V33.0688H117.975V31.3896H109.879V42.3623Z" fill="white"/>
<path d="M123.813 42.5455C126.128 42.5455 127.811 41.3817 127.811 39.3368C127.811 37.3251 126.111 36.6103 124.346 36.1281C122.879 35.7125 121.88 35.4133 121.88 34.3326C121.88 33.3018 122.647 32.7698 123.796 32.7698C124.995 32.7698 125.779 33.3683 125.795 34.6817H127.544C127.544 32.4373 125.928 31.207 123.746 31.207C121.547 31.207 119.931 32.4539 119.931 34.4656C119.931 36.3941 121.43 37.0592 123.496 37.641C124.562 37.9403 125.861 38.3227 125.861 39.4864C125.861 40.351 125.145 41.016 123.779 41.016C122.18 41.016 121.463 40.085 121.463 39.4199V38.8547H119.831C119.798 39.0874 119.781 39.4366 119.781 39.6195C119.781 41.0991 121.214 42.5455 123.813 42.5455Z" fill="white"/>
</g>
<defs>
<clipPath id="clip0_805_347">
<rect width="176.727" height="48" fill="white" transform="translate(0.636719)"/>
</clipPath>
</defs>
</svg>
