<svg width="905" height="905" viewBox="0 0 905 905" fill="none" xmlns="http://www.w3.org/2000/svg">
<path fill-rule="evenodd" clip-rule="evenodd" d="M452.134 0C701.726 0 904.438 202.637 904.438 452.219C904.438 701.8 701.726 904.438 452.134 904.438C202.544 904.438 0 701.8 0 452.219C0 202.637 202.544 0 452.134 0ZM452.134 46.5985C228.294 46.5985 46.5495 228.354 46.5495 452.219C46.5495 676.083 228.294 857.839 452.134 857.839C675.976 857.839 857.72 676.083 857.72 452.219C857.72 228.354 675.976 46.5985 452.134 46.5985ZM254.099 631.058C224.825 622.487 197.262 606.698 174.134 583.571C100.546 509.986 100.564 390.618 174.104 317.081C197.362 293.824 225.243 277.909 254.791 269.386C254.735 269.928 254.638 270.43 254.541 270.932C254.444 271.434 254.347 271.935 254.291 272.477C253.143 280.741 252.382 288.94 252.189 297.221C230.193 304.984 209.716 317.694 192.217 335.193C128.688 398.72 128.703 501.883 192.264 565.442C209.569 582.747 229.915 595.394 251.507 603.238C256.505 605.032 261.653 606.687 266.796 608.014C272.198 609.404 277.6 610.472 283.002 611.215C286.317 611.782 289.517 612.135 292.751 612.459C297.797 612.911 302.792 613.087 307.919 613.135C345.328 612.924 382.837 600.006 412.968 574.082L290.538 451.656L308.668 433.526L449.698 574.551L440.641 583.607C437.956 586.292 435.143 588.784 432.345 591.259C398.139 621.582 355.518 637.347 312.594 638.544C307.5 638.786 302.339 638.769 297.131 638.478C291.083 638.057 285.184 637.495 279.264 636.622C276.175 636.153 273.131 635.631 269.977 634.903C264.752 633.981 259.355 632.595 254.099 631.058ZM308.437 287.547C308.728 285.315 309.04 283.073 309.379 280.792C310.253 274.42 311.625 268.191 313.307 261.981C350.894 263.21 388.268 275.644 419.773 299.127L401.433 317.466C373.615 297.736 341.123 287.854 308.437 287.547ZM322.17 169.587C299.042 192.714 283.252 220.275 274.681 249.548C273.144 254.804 271.758 260.202 270.836 265.425C270.108 268.579 269.586 271.624 269.117 274.712C268.244 280.632 267.681 286.53 267.261 292.58C266.97 297.787 266.953 302.947 267.195 308.042C268.392 350.964 284.157 393.583 314.482 427.788C316.957 430.586 319.448 433.399 322.133 436.083L331.19 445.14L472.22 304.116L454.089 285.986L331.659 408.412C305.734 378.282 292.814 340.774 292.605 303.366C292.653 298.24 292.829 293.245 293.281 288.199C293.605 284.965 293.958 281.765 294.524 278.45C295.268 273.048 296.336 267.646 297.726 262.244C299.053 257.101 300.708 251.954 302.502 246.956C310.346 225.366 322.994 205.021 340.3 187.715C403.86 124.157 507.028 124.143 570.557 187.669C588.056 205.168 600.767 225.643 608.53 247.639C616.811 247.832 625.01 248.592 633.276 249.74C633.817 249.797 634.318 249.894 634.82 249.99L634.82 249.991C635.322 250.087 635.824 250.184 636.366 250.241C627.842 220.694 611.927 192.813 588.669 169.557C515.129 96.0196 395.758 96.0009 322.17 169.587ZM624.96 304.827C622.679 304.488 620.436 304.175 618.204 303.884C617.897 336.569 608.015 369.06 588.284 396.877L606.625 415.216C630.108 383.712 642.543 346.339 643.771 308.755C637.561 307.072 631.332 305.7 624.96 304.827ZM656.194 269.871C685.467 278.443 713.03 294.231 736.157 317.358C809.746 390.944 809.727 510.312 736.187 583.849C712.931 607.105 685.049 623.02 655.5 631.542C655.557 631.002 655.653 630.502 655.75 630.002L655.75 630.001C655.847 629.498 655.944 628.996 656.001 628.453C657.149 620.189 657.909 611.989 658.103 603.708C680.099 595.946 700.575 583.235 718.075 565.736C781.603 502.21 781.589 399.047 718.028 335.487C700.722 318.183 680.376 305.536 658.785 297.692C653.788 295.896 648.64 294.243 643.496 292.916C638.095 291.525 632.693 290.458 627.291 289.714C623.975 289.148 620.775 288.795 617.54 288.471C612.494 288.019 607.499 287.843 602.373 287.795C564.964 288.004 527.454 300.922 497.324 326.848L619.754 449.274L601.623 467.403L460.594 326.379L469.651 317.322C472.336 314.637 475.149 312.146 477.947 309.671C512.153 279.347 554.773 263.582 597.697 262.386C602.792 262.143 607.952 262.161 613.16 262.452C619.21 262.872 625.109 263.434 631.028 264.308C634.117 264.777 637.162 265.299 640.315 266.026C645.539 266.948 650.937 268.335 656.194 269.871ZM601.856 613.382C601.564 615.614 601.251 617.857 600.912 620.137C600.039 626.51 598.666 632.739 596.984 638.949C559.397 637.719 522.024 625.285 490.518 601.803L508.859 583.462C536.678 603.194 569.169 613.075 601.856 613.382ZM588.119 731.342C611.247 708.215 627.035 680.653 635.607 651.38C637.144 646.124 638.531 640.726 639.453 635.502C640.181 632.349 640.702 629.305 641.17 626.216C642.044 620.296 642.606 614.398 643.027 608.348C643.318 603.141 643.336 597.981 643.093 592.887C641.896 549.964 626.131 507.345 595.806 473.14C593.332 470.342 590.839 467.529 588.155 464.845L579.098 455.788L438.069 596.813L456.199 614.943L578.629 492.517C604.555 522.646 617.473 560.154 617.684 597.562C617.634 602.688 617.46 607.683 617.007 612.729C616.683 615.963 616.33 619.164 615.764 622.478C615.02 627.88 613.953 633.282 612.561 638.684C611.236 643.826 609.581 648.974 607.785 653.972C599.941 675.562 587.294 695.907 569.988 713.212C506.428 776.771 403.26 776.785 339.732 713.259C322.232 695.76 309.521 675.285 301.758 653.29C293.477 653.096 285.277 652.336 277.013 651.188C276.471 651.131 275.969 651.034 275.467 650.937C274.965 650.841 274.464 650.744 273.922 650.687C282.446 680.235 298.361 708.115 321.618 731.371C395.158 804.908 514.531 804.927 588.119 731.342ZM303.664 485.712C280.18 517.216 267.746 554.588 266.516 592.173C272.727 593.856 278.957 595.228 285.329 596.101C287.608 596.441 289.852 596.753 292.083 597.044C292.391 564.359 302.273 531.868 322.005 504.051L303.664 485.712Z" fill="white"/>
</svg>
