<svg width="21" height="24" viewBox="0 0 21 24" fill="none" xmlns="http://www.w3.org/2000/svg">
<g clip-path="url(#clip0_805_373)">
<path d="M10.5 9.49969C10.0055 9.49987 9.52221 9.64667 9.11116 9.92152C8.70011 10.1964 8.37978 10.5869 8.19068 11.0438C8.00158 11.5007 7.9522 12.0034 8.04878 12.4884C8.14536 12.9733 8.38357 13.4187 8.73328 13.7683C9.08299 14.1179 9.52851 14.3559 10.0135 14.4523C10.4985 14.5487 11.0012 14.4992 11.458 14.3099C11.9148 14.1206 12.3052 13.8002 12.5799 13.389C12.8546 12.9778 13.0012 12.4945 13.0012 12C13.0008 11.3369 12.737 10.701 12.268 10.2322C11.7991 9.76341 11.1631 9.49994 10.5 9.49969ZM16.3458 7.57781C16.2185 7.25524 16.0263 6.96226 15.7811 6.71705C15.5359 6.47184 15.2429 6.27963 14.9203 6.15234C13.9359 5.76375 11.5922 5.85094 10.5 5.85094C9.40781 5.85094 7.06641 5.76047 6.07922 6.15234C5.75664 6.27963 5.46367 6.47184 5.21846 6.71705C4.97325 6.96226 4.78104 7.25524 4.65375 7.57781C4.26562 8.56219 4.35234 10.9083 4.35234 11.9995C4.35234 13.0908 4.26562 15.4341 4.65562 16.4217C4.78291 16.7443 4.97512 17.0373 5.22033 17.2825C5.46554 17.5277 5.75852 17.7199 6.08109 17.8472C7.06547 18.2358 9.40922 18.1486 10.5019 18.1486C11.5945 18.1486 13.935 18.2391 14.9222 17.8472C15.2448 17.7199 15.5377 17.5277 15.783 17.2825C16.0282 17.0373 16.2204 16.7443 16.3477 16.4217C16.7391 15.4373 16.6491 13.0913 16.6491 12C16.6491 10.9087 16.7391 8.56594 16.3477 7.57828L16.3458 7.57781ZM10.5 15.8438C9.73978 15.8438 8.99663 15.6183 8.36453 15.196C7.73243 14.7736 7.23976 14.1733 6.94884 13.4709C6.65791 12.7686 6.58179 11.9957 6.73011 11.2501C6.87842 10.5045 7.2445 9.81962 7.78206 9.28206C8.31962 8.7445 9.00451 8.37842 9.75012 8.23011C10.4957 8.08179 11.2686 8.15791 11.9709 8.44884C12.6733 8.73976 13.2736 9.23243 13.696 9.86453C14.1183 10.4966 14.3438 11.2398 14.3438 12C14.3444 12.5049 14.2454 13.005 14.0524 13.4717C13.8595 13.9383 13.5764 14.3623 13.2193 14.7193C12.8623 15.0764 12.4383 15.3595 11.9717 15.5524C11.505 15.7454 11.0049 15.8444 10.5 15.8438ZM14.5022 8.89219C14.3247 8.89228 14.1512 8.83974 14.0036 8.74121C13.856 8.64268 13.7409 8.5026 13.673 8.33866C13.605 8.17473 13.5871 7.99432 13.6217 7.82026C13.6563 7.64619 13.7417 7.48628 13.8671 7.36076C13.9926 7.23524 14.1525 7.14974 14.3265 7.11509C14.5006 7.08043 14.681 7.09817 14.8449 7.16606C15.0089 7.23395 15.1491 7.34895 15.2477 7.4965C15.3463 7.64405 15.3989 7.81753 15.3989 7.995C15.3994 8.11285 15.3766 8.22964 15.3319 8.33866C15.2871 8.44769 15.2213 8.54681 15.1382 8.63034C15.055 8.71387 14.9562 8.78016 14.8474 8.82542C14.7386 8.87067 14.6219 8.894 14.5041 8.89406L14.5022 8.89219ZM18.75 1.5H2.25C1.65326 1.5 1.08097 1.73705 0.65901 2.15901C0.237053 2.58097 0 3.15326 0 3.75L0 20.25C0 20.8467 0.237053 21.419 0.65901 21.841C1.08097 22.2629 1.65326 22.5 2.25 22.5H18.75C19.3467 22.5 19.919 22.2629 20.341 21.841C20.7629 21.419 21 20.8467 21 20.25V3.75C21 3.15326 20.7629 2.58097 20.341 2.15901C19.919 1.73705 19.3467 1.5 18.75 1.5ZM17.9475 15.0938C17.887 16.2952 17.6128 17.3597 16.7358 18.2344C15.8588 19.1091 14.7952 19.3889 13.5952 19.4461C12.3572 19.5159 8.64563 19.5159 7.40766 19.4461C6.20625 19.3856 5.14547 19.1109 4.26703 18.2344C3.38859 17.3578 3.1125 16.2928 3.05531 15.0938C2.98547 13.8553 2.98547 10.1433 3.05531 8.90625C3.11578 7.70484 3.38672 6.64031 4.26703 5.76562C5.14734 4.89094 6.21094 4.61438 7.40766 4.55719C8.64563 4.48734 12.3572 4.48734 13.5952 4.55719C14.7966 4.61766 15.8606 4.89234 16.7358 5.76891C17.6109 6.64547 17.8903 7.71047 17.9475 8.91187C18.0173 10.1456 18.0173 13.8544 17.9475 15.0938Z" fill="white"/>
</g>
<defs>
<clipPath id="clip0_805_373">
<rect width="21" height="24" fill="white"/>
</clipPath>
</defs>
</svg>
