<svg width="60" height="20" viewBox="0 0 60 20" fill="none" xmlns="http://www.w3.org/2000/svg">
<path d="M10.0719 20C15.6345 20 20.1439 15.5228 20.1439 10C20.1439 4.47715 15.6345 0 10.0719 0C4.50936 0 0 4.47715 0 10C0 15.5228 4.50936 20 10.0719 20Z" fill="white"/>
<path d="M9.59375 4.28613V6.5285H11.2542V8.72918H9.59375V12.5263C9.59375 12.8653 9.6545 13.0972 9.75976 13.2348C9.8816 13.3942 9.94641 13.514 10.4162 13.514H11.3673V15.7147C10.8693 15.7147 10.1144 15.7147 9.61638 15.7147C8.74107 15.7147 8.09464 15.4869 7.67709 15.0312C7.25955 14.5755 7.05078 13.8836 7.05078 12.9555V4.28613H9.59375Z" fill="#000918"/>
<path d="M13.6347 13.5723C14.2097 13.5723 14.6759 14.0344 14.6759 14.6044C14.6759 14.6306 14.6759 14.6568 14.6759 14.683C14.6759 15.253 14.2097 15.7151 13.6347 15.7151C13.6094 15.7151 13.5841 15.7151 13.5587 15.7151C12.9837 15.7151 12.5176 15.253 12.5176 14.683V14.6044C12.5176 14.0344 12.9837 13.5723 13.5587 13.5723H13.6347Z" fill="#1EB7FB"/>
<path d="M37.0553 11.0336C37.0553 10.3688 37.1995 9.77616 37.4879 9.25583C37.7762 8.73552 38.1913 8.33288 38.7331 8.04794C39.2749 7.763 39.9039 7.62053 40.6202 7.62053C41.6387 7.62053 42.47 7.89721 43.1141 8.45058C43.7583 9.00394 44.1175 9.75552 44.1919 10.7053L44.2059 11.1637C44.2059 12.192 43.8827 13.0169 43.2362 13.6383C42.5898 14.2598 41.7224 14.5706 40.6341 14.5706C39.5458 14.5706 38.6773 14.2609 38.0285 13.6414C37.3798 13.022 37.0553 12.1796 37.0553 11.1142V11.0336ZM45.1337 11.0336C45.1337 10.3688 45.2779 9.77616 45.5662 9.25583C45.8546 8.73552 46.2697 8.33288 46.8115 8.04794C47.3533 7.763 47.9823 7.62053 48.6985 7.62053C49.717 7.62053 50.5484 7.89721 51.1925 8.45058C51.8366 9.00394 52.1959 9.75552 52.2703 10.7053L52.2843 11.1637C52.2843 12.192 51.961 13.0169 51.3146 13.6383C50.6681 14.2598 49.8008 14.5706 48.7125 14.5706C47.6242 14.5706 46.7557 14.2609 46.1069 13.6414C45.4581 13.022 45.1337 12.1796 45.1337 11.1142V11.0336ZM31.7268 6.93295H28.6155V14.4467H26.5226V6.93295H23.4531V5.42773H31.7268V6.93295ZM36.6238 9.4231C36.3494 9.39004 36.1076 9.37353 35.8983 9.37353C35.1356 9.37353 34.6356 9.60273 34.3984 10.0611V14.4467H32.3823V7.74441H34.2868L34.3426 8.5435C34.7472 7.92817 35.3077 7.62053 36.0239 7.62053C36.2471 7.62053 36.4564 7.64738 36.6517 7.70106L36.6238 9.4231ZM55.3817 7.74441L55.4445 8.5187C55.9839 7.91991 56.7072 7.62053 57.614 7.62053C58.414 7.62053 59.0093 7.82907 59.3999 8.24617C59.7906 8.66325 59.9906 9.28681 59.9999 10.1169V14.4467H57.9838V10.1602C57.9838 9.78029 57.8908 9.50465 57.7047 9.33326C57.5187 9.16188 57.2094 9.0762 56.7769 9.0762C56.2095 9.0762 55.784 9.29094 55.5003 9.72043V14.4467H53.4842V7.74441H55.3817ZM39.0715 11.1607C39.0715 11.7976 39.2063 12.2846 39.4761 12.6217C39.7458 12.9588 40.1318 13.1273 40.6341 13.1273C41.1224 13.1273 41.5038 12.9608 41.7782 12.6279C42.0526 12.2949 42.1898 11.7625 42.1898 11.0304C42.1898 10.4059 42.0526 9.922 41.7782 9.57872C41.5038 9.23545 41.1178 9.06381 40.6202 9.06381C40.1272 9.06381 39.7458 9.23442 39.4761 9.57561C39.2063 9.91682 39.0715 10.4452 39.0715 11.1607ZM47.1498 11.1607C47.1498 11.7976 47.2847 12.2846 47.5544 12.6217C47.8242 12.9588 48.2102 13.1273 48.7125 13.1273C49.2008 13.1273 49.5822 12.9608 49.8566 12.6279C50.131 12.2949 50.2682 11.7625 50.2682 11.0304C50.2682 10.4059 50.131 9.922 49.8566 9.57872C49.5822 9.23545 49.1962 9.06381 48.6985 9.06381C48.2056 9.06381 47.8242 9.23442 47.5544 9.57561C47.2847 9.91682 47.1498 10.4452 47.1498 11.1607Z" fill="white"/>
</svg>
